<svg version="1.1" xmlns="http://www.w3.org/2000/svg" viewBox="0 0 849.7734375 272.97265625" width="849.7734375" height="272.97265625">
  <!-- svg-source:excalidraw -->
  
  <defs>
    <style>
      @font-face {
        font-family: "Virgil";
        src: url("https://excalidraw.com/Virgil.woff2");
      }
      @font-face {
        font-family: "Cascadia";
        src: url("https://excalidraw.com/Cascadia.woff2");
      }
    </style>
  </defs>
  <rect x="0" y="0" width="849.7734375" height="272.97265625" fill="#ffffff"></rect><g stroke-linecap="round" transform="translate(305.38671875 59.953125) rotate(0 93.263671875 56.12109375)"><path d="M1.08 0.24 C74.34 -0.88, 145.69 0.57, 188.05 0.2 M-0.44 -0.92 C68.21 -2.79, 135.79 -2.43, 186.48 -0.87 M185.81 0.39 C187.12 25.7, 187.86 49.88, 188.2 112.57 M186.38 0.09 C187.64 27.98, 187.43 56.87, 186.48 111.35 M186.52 111.35 C119.02 114.94, 48.44 113.82, 1.11 111.33 M186.99 112.84 C121.74 114.66, 59.73 114.91, 0.92 111.53 M-0.14 114.06 C-0.15 76.5, 0.6 40.14, -1.08 -0.33 M0.37 111.51 C0.13 86.37, 1.54 59.42, -0.8 -0.55" stroke="#579cc9" stroke-width="1" fill="none"></path></g><g transform="translate(354.2578125 90.359375) rotate(0 47 25)"><text x="47" y="18" font-family="Virgil, Segoe UI Emoji" font-size="20px" fill="#579cc9" text-anchor="middle" style="white-space: pre;" direction="ltr">WEBPACK</text><text x="47" y="43" font-family="Virgil, Segoe UI Emoji" font-size="20px" fill="#579cc9" text-anchor="middle" style="white-space: pre;" direction="ltr">bundler</text></g><g stroke-linecap="round" transform="translate(19.89453125 100.98828125) rotate(0 65.40625 19.03125)"><path d="M-0.8 -0.93 C34.59 -1.09, 65.76 -0.84, 132.59 1.87 M-1 -0.38 C27.45 1.4, 57.38 0.66, 130.85 0.86 M128.87 -0.48 C132.68 10.3, 130.27 22.46, 129.98 38.21 M131.23 0.94 C130.82 8.95, 130.31 16.96, 131.62 38.41 M130.37 38.27 C86.23 37.45, 43.92 39.33, 1.21 36.2 M129.98 38.23 C102.3 36.72, 73.68 38.06, -0.58 37.39 M-1.51 38.08 C0.01 29.86, 1.49 18.91, 1.38 0.21 M0.12 37.38 C0.15 27.82, -0.27 19.79, -0.07 -0.98" stroke="#ff982e" stroke-width="1" fill="none"></path></g><g stroke-linecap="round" transform="translate(14.328125 33.79296875) rotate(0 70.5 19.140625)"><path d="M0.99 0.24 C42.39 0.32, 85.58 -0.51, 141.55 -0.15 M0.21 0.31 C28.25 -0.81, 56.23 -0.67, 141.29 0.49 M139.19 -0.17 C142.32 13.66, 140.66 27.39, 139.89 39.76 M141.03 0.27 C141.73 9.2, 140.75 17.74, 140.07 37.79 M141.98 36.46 C94.2 37.51, 48.06 36.63, 0.1 39.69 M141.49 38.04 C95.42 38.24, 49.11 37.78, 0.92 37.32 M-1.51 38.47 C-1.8 28.11, 0.53 19.01, -0.23 -1.66 M0.33 37.99 C-0.39 26.65, -0.48 14.59, -0.09 -0.92" stroke="#ff982e" stroke-width="1" fill="none"></path></g><g transform="translate(54.85546875 106.58984375) rotate(0 28.5 12.5)"><text x="0" y="18" font-family="Virgil, Segoe UI Emoji" font-size="20px" fill="#ff982e" text-anchor="start" style="white-space: pre;" direction="ltr">app.js</text></g><g transform="translate(19.328125 40.43359375) rotate(0 65.5 12.5)"><text x="65.5" y="18" font-family="Virgil, Segoe UI Emoji" font-size="20px" fill="#ff982e" text-anchor="middle" style="white-space: pre;" direction="ltr">utils.js</text></g><g stroke-linecap="round" transform="translate(10 166.59375) rotate(0 74.734375 19.689453125)"><path d="M1.45 -0.79 C31.02 -1.17, 64.02 -2.12, 148.4 -1.04 M0.72 -0.46 C58.93 1.18, 117.26 0.61, 149.99 -0.6 M148.14 0.24 C148.93 17.07, 149.77 33.02, 149.46 38.64 M149.7 -0.27 C149.77 11.65, 150.27 24.56, 149.11 39.34 M149.14 37.77 C102.65 40.2, 54.49 38.25, 1.32 40.39 M148.92 40 C106.62 38.74, 66.47 38.82, -0.49 39.09 M0.58 38.28 C0.83 25.06, 0.35 11.07, 1.66 -0.4 M0.98 39.37 C0.1 29.62, 0.29 19.73, 0.39 -0.14" stroke="#009ce6" stroke-width="1" fill="none"></path></g><g stroke-linecap="round" transform="translate(10.71875 223.59375) rotate(0 74.734375 19.689453125)"><path d="M-1.58 -1.33 C53.09 1.32, 101.67 0.98, 148.62 0.3 M0.04 0.62 C40.98 0.27, 80.52 -0.2, 149.52 0.62 M151.13 1.55 C150.81 12.9, 148.36 24.46, 151.05 39.65 M148.51 0.64 C148.83 13.48, 148.75 27.59, 148.5 39.74 M150.05 38.06 C116.91 39.81, 86.67 38.79, 0.67 37.87 M149.48 38.95 C108.4 38.2, 68.56 38.67, 0.24 38.46 M-1.81 39.58 C0.77 27.69, 0.62 17.97, 1.12 -0.39 M0.92 39.89 C-0.35 26.84, 1.02 13.07, -0.65 0.58" stroke="#009ce6" stroke-width="1" fill="none"></path></g><g transform="translate(15 173.783203125) rotate(0 69.5 12.5)"><text x="69.5" y="18" font-family="Virgil, Segoe UI Emoji" font-size="20px" fill="#009ce6" text-anchor="middle" style="white-space: pre;" direction="ltr">styles.css</text></g><g transform="translate(15.71875 230.783203125) rotate(0 69.5 12.5)"><text x="69.5" y="18" font-family="Virgil, Segoe UI Emoji" font-size="20px" fill="#009ce6" text-anchor="middle" style="white-space: pre;" direction="ltr">base.css</text></g><g stroke-linecap="round"><g transform="translate(157.36328125 51.87436830772367) rotate(0 70.8946189301601 24.396083301673244)"><path d="M0.98 -1.09 C24.47 6.87, 118.29 40.2, 141.76 48.83 M0.03 0.96 C23.28 9.56, 117.22 41.9, 140.7 49.88" stroke="#000000" stroke-width="1" fill="none"></path></g><g transform="translate(157.36328125 51.87436830772367) rotate(0 70.8946189301601 24.396083301673244)"><path d="M108.89 50.09 C120.15 49.68, 134.27 49.62, 139.18 49.43 M110.79 49.46 C117.11 50.96, 123.31 49.6, 139.94 49.36" stroke="#000000" stroke-width="1" fill="none"></path></g><g transform="translate(157.36328125 51.87436830772367) rotate(0 70.8946189301601 24.396083301673244)"><path d="M115.54 30.68 C124.54 37.44, 136.22 44.5, 139.18 49.43 M117.45 30.04 C122.23 35.81, 126.96 38.72, 139.94 49.36" stroke="#000000" stroke-width="1" fill="none"></path></g></g><g stroke-linecap="round"><g transform="translate(164.3828125 121.20243978693736) rotate(0 71.02711139964879 -7.992859639454679)"><path d="M1.19 -0.67 C24.28 -3.15, 116.16 -13.27, 139.34 -15.91 M0.35 1.6 C23.78 -1.13, 118.48 -14.82, 141.7 -17.58" stroke="#000000" stroke-width="1" fill="none"></path></g><g transform="translate(164.3828125 121.20243978693736) rotate(0 71.02711139964879 -7.992859639454679)"><path d="M114 -4.8 C126.32 -8.55, 135.06 -13.56, 142.67 -15.69 M114.55 -3.75 C124.53 -8.17, 132.19 -13, 141.76 -18.54" stroke="#000000" stroke-width="1" fill="none"></path></g><g transform="translate(164.3828125 121.20243978693736) rotate(0 71.02711139964879 -7.992859639454679)"><path d="M111.29 -25.14 C124.42 -21.52, 134.16 -19.12, 142.67 -15.69 M111.84 -24.1 C122.7 -22, 131.23 -20.33, 141.76 -18.54" stroke="#000000" stroke-width="1" fill="none"></path></g></g><g stroke-linecap="round"><g transform="translate(169.09765625 187.70191733401504) rotate(0 65.74434128099585 -39.508512239140856)"><path d="M0.74 0.87 C22.59 -11.99, 110.06 -64.89, 131.82 -78.34 M-0.34 0.28 C21.29 -12.78, 109.08 -66.73, 130.84 -79.89" stroke="#000000" stroke-width="1" fill="none"></path></g><g transform="translate(169.09765625 187.70191733401504) rotate(0 65.74434128099585 -39.508512239140856)"><path d="M113.57 -56.56 C120.92 -65.97, 125.2 -72.65, 130.55 -80.69 M111.66 -55.81 C118.38 -63.47, 123.07 -71.3, 130.66 -80.51" stroke="#000000" stroke-width="1" fill="none"></path></g><g transform="translate(169.09765625 187.70191733401504) rotate(0 65.74434128099585 -39.508512239140856)"><path d="M102.89 -74.08 C113.91 -77.24, 122.05 -77.61, 130.55 -80.69 M100.97 -73.33 C111.04 -75.5, 119.1 -77.8, 130.66 -80.51" stroke="#000000" stroke-width="1" fill="none"></path></g></g><g stroke-linecap="round"><g transform="translate(495.32421875 105.6510056286333) rotate(0 59.962083246698626 1.0838165519651852)"><path d="M0.93 0.49 C20.6 1.06, 98 2.21, 117.7 2.46 M-0.04 -0.3 C20.04 0.04, 100.17 0.85, 119.97 0.9" stroke="#000000" stroke-width="1" fill="none"></path></g><g transform="translate(495.32421875 105.6510056286333) rotate(0 59.962083246698626 1.0838165519651852)"><path d="M92.52 9.54 C101.23 9.02, 108.18 5.15, 121.16 2.06 M91.55 11.88 C99.41 8.61, 106.8 4.55, 120.27 1.01" stroke="#000000" stroke-width="1" fill="none"></path></g><g transform="translate(495.32421875 105.6510056286333) rotate(0 59.962083246698626 1.0838165519651852)"><path d="M92.67 -10.98 C101.17 -5.93, 108.09 -4.22, 121.16 2.06 M91.7 -8.64 C99.53 -6.62, 106.88 -5.41, 120.27 1.01" stroke="#000000" stroke-width="1" fill="none"></path></g></g><g stroke-linecap="round" transform="translate(624.8359375 10) rotate(0 107.46875 109.48828125)"><path d="M0.84 -1.37 C49.91 0.57, 96.28 0.23, 213.4 1.39 M0.75 -0.64 C62.51 0.45, 123.75 1.96, 214.59 0.37 M214.73 -0.3 C212.78 76.25, 213.63 150.23, 216.05 220.45 M215 -0.17 C214.72 45.82, 214.49 91.25, 214.96 218.43 M214.25 220.52 C140.57 220.64, 68.64 217.7, -1.73 218.89 M215.62 218.6 C167.96 218.73, 119.29 217.43, 0.82 218.38 M0.24 217.78 C-0.37 143.02, 0.35 64.74, -0.79 1.1 M-0.49 218.77 C0.27 144.25, -0.66 70.04, 0.82 0.36" stroke="#000000" stroke-width="1" fill="none"></path></g><g stroke-linecap="round" transform="translate(654.640625 45.015625) rotate(0 75.1640625 24.78515625)"><path d="M-0.17 -0.74 C60.06 -0.87, 116.74 0.8, 148.49 1.57 M0.74 0.52 C53.4 -0.54, 106.49 -0.02, 150.85 -0.84 M149.13 -1.24 C150.24 18.35, 152.16 37.41, 150.26 50.92 M149.94 1 C150.82 11.54, 151.41 23.91, 149.96 49.03 M149.75 48.73 C96.41 47.79, 43.01 48.77, 1.95 50.12 M150.27 49.36 C98.98 50.52, 47.29 49.94, 0.39 50.29 M0.38 48.5 C0.52 32.67, -1.68 18.18, 1.67 1.69 M0.51 49.65 C0.95 37.82, 0.57 25.37, 0.18 -0.35" stroke="#ff982e" stroke-width="1" fill="none"></path></g><g transform="translate(659.640625 57.30078125) rotate(0 70 12.5)"><text x="70" y="18" font-family="Virgil, Segoe UI Emoji" font-size="20px" fill="#ff982e" text-anchor="middle" style="white-space: pre;" direction="ltr">bundle.js</text></g><g stroke-linecap="round" transform="translate(661.74609375 131.0078125) rotate(0 75.59765625 18.580078125)"><path d="M-1.88 0.68 C42.08 1.89, 84.5 -0.91, 152.04 -0.73 M-0.75 0.02 C36.09 -0.28, 71.45 -0.33, 152.15 -0.68 M151.06 -1.01 C151.61 8.2, 149.95 16.49, 149.51 37.53 M151.31 -0.05 C150.13 10.49, 150.99 20.83, 151.31 37.94 M153.06 35.72 C105.95 37.38, 60.79 39.35, 1.34 37.11 M150.79 37.35 C106.35 38.65, 62.99 39.38, -0.92 37.56 M-0.21 37.1 C0.88 23.43, -1.53 12.17, -0.1 -1.51 M0.67 37.98 C0.9 23.62, -0.13 10.19, -0.76 -0.72" stroke="#009ce6" stroke-width="1" fill="none"></path></g><g transform="translate(666.74609375 137.087890625) rotate(0 70.5 12.5)"><text x="70.5" y="18" font-family="Virgil, Segoe UI Emoji" font-size="20px" fill="#009ce6" text-anchor="middle" style="white-space: pre;" direction="ltr">bundle.css</text></g><g stroke-linecap="round"><g transform="translate(165.3125 243.83094830904645) rotate(0 68.40240416580343 -69.97476424559244)"><path d="M-0.01 -0.37 C23.21 -23.67, 115.17 -116.45, 138.28 -139.58 M-1.48 -1.61 C21.7 -24.73, 114.21 -114.75, 137.49 -138.02" stroke="#000000" stroke-width="1" fill="none"></path></g><g transform="translate(165.3125 243.83094830904645) rotate(0 68.40240416580343 -69.97476424559244)"><path d="M123.99 -110.41 C127.4 -115.65, 130.94 -122.37, 137.98 -136.87 M124.73 -110.52 C127.94 -120.08, 133.45 -128.47, 136.49 -138.41" stroke="#000000" stroke-width="1" fill="none"></path></g><g transform="translate(165.3125 243.83094830904645) rotate(0 68.40240416580343 -69.97476424559244)"><path d="M109.59 -125.03 C116.12 -127.13, 122.75 -130.71, 137.98 -136.87 M110.33 -125.14 C118.27 -129.88, 128.53 -133.46, 136.49 -138.41" stroke="#000000" stroke-width="1" fill="none"></path></g></g></svg>